<mxfile host="app.diagrams.net" modified="2022-10-19T02:17:20.901Z" agent="5.0 (Windows)" etag="MQdQY-B1_Gzuzw_u-q1J" version="20.4.1" type="github">
  <diagram id="qRkt4Y1RNNpKCaW_8E0I" name="Page-1">
    <mxGraphModel dx="1422" dy="791" grid="1" gridSize="10" guides="1" tooltips="1" connect="1" arrows="1" fold="1" page="1" pageScale="1" pageWidth="850" pageHeight="1100" math="0" shadow="0">
      <root>
        <mxCell id="0" />
        <mxCell id="1" parent="0" />
        <mxCell id="WboviOallaujsfzrFde7-1" value="" style="rounded=0;whiteSpace=wrap;html=1;fillColor=#6d8764;strokeColor=#3A5431;fontColor=#ffffff;" vertex="1" parent="1">
          <mxGeometry x="60" y="30" width="720" height="210" as="geometry" />
        </mxCell>
        <mxCell id="pceAAc0VWWeZ7ACtFp88-1" value="Node" style="whiteSpace=wrap;html=1;aspect=fixed;" parent="1" vertex="1">
          <mxGeometry x="140" y="130" width="80" height="80" as="geometry" />
        </mxCell>
        <mxCell id="pceAAc0VWWeZ7ACtFp88-2" value="Node" style="whiteSpace=wrap;html=1;aspect=fixed;" parent="1" vertex="1">
          <mxGeometry x="260" y="130" width="80" height="80" as="geometry" />
        </mxCell>
        <mxCell id="pceAAc0VWWeZ7ACtFp88-3" value="Node" style="whiteSpace=wrap;html=1;aspect=fixed;" parent="1" vertex="1">
          <mxGeometry x="380" y="130" width="80" height="80" as="geometry" />
        </mxCell>
        <mxCell id="pceAAc0VWWeZ7ACtFp88-4" value="Node" style="whiteSpace=wrap;html=1;aspect=fixed;" parent="1" vertex="1">
          <mxGeometry x="500" y="130" width="80" height="80" as="geometry" />
        </mxCell>
        <mxCell id="pceAAc0VWWeZ7ACtFp88-5" value="Node" style="whiteSpace=wrap;html=1;aspect=fixed;" parent="1" vertex="1">
          <mxGeometry x="620" y="130" width="80" height="80" as="geometry" />
        </mxCell>
        <mxCell id="pceAAc0VWWeZ7ACtFp88-7" value="" style="endArrow=classic;html=1;rounded=0;entryX=0;entryY=0.5;entryDx=0;entryDy=0;" parent="1" target="pceAAc0VWWeZ7ACtFp88-2" edge="1">
          <mxGeometry width="50" height="50" relative="1" as="geometry">
            <mxPoint x="220" y="170" as="sourcePoint" />
            <mxPoint x="270" y="120" as="targetPoint" />
          </mxGeometry>
        </mxCell>
        <mxCell id="pceAAc0VWWeZ7ACtFp88-8" value="" style="endArrow=classic;html=1;rounded=0;entryX=0;entryY=0.5;entryDx=0;entryDy=0;" parent="1" edge="1">
          <mxGeometry width="50" height="50" relative="1" as="geometry">
            <mxPoint x="340" y="169.5" as="sourcePoint" />
            <mxPoint x="380" y="169.5" as="targetPoint" />
          </mxGeometry>
        </mxCell>
        <mxCell id="pceAAc0VWWeZ7ACtFp88-9" value="" style="endArrow=classic;html=1;rounded=0;entryX=0;entryY=0.5;entryDx=0;entryDy=0;" parent="1" edge="1">
          <mxGeometry width="50" height="50" relative="1" as="geometry">
            <mxPoint x="460" y="169.8" as="sourcePoint" />
            <mxPoint x="500" y="169.8" as="targetPoint" />
          </mxGeometry>
        </mxCell>
        <mxCell id="pceAAc0VWWeZ7ACtFp88-10" value="" style="endArrow=classic;html=1;rounded=0;entryX=0;entryY=0.5;entryDx=0;entryDy=0;" parent="1" edge="1">
          <mxGeometry width="50" height="50" relative="1" as="geometry">
            <mxPoint x="580" y="169.5" as="sourcePoint" />
            <mxPoint x="620" y="169.5" as="targetPoint" />
          </mxGeometry>
        </mxCell>
        <mxCell id="pceAAc0VWWeZ7ACtFp88-11" value="&lt;div&gt;TreeNode&lt;/div&gt;" style="ellipse;whiteSpace=wrap;html=1;aspect=fixed;" parent="1" vertex="1">
          <mxGeometry x="320" y="280" width="80" height="80" as="geometry" />
        </mxCell>
        <mxCell id="pceAAc0VWWeZ7ACtFp88-14" value="" style="ellipse;whiteSpace=wrap;html=1;aspect=fixed;" parent="1" vertex="1">
          <mxGeometry x="160" y="360" width="80" height="80" as="geometry" />
        </mxCell>
        <mxCell id="pceAAc0VWWeZ7ACtFp88-15" value="" style="ellipse;whiteSpace=wrap;html=1;aspect=fixed;" parent="1" vertex="1">
          <mxGeometry x="480" y="360" width="80" height="80" as="geometry" />
        </mxCell>
        <mxCell id="pceAAc0VWWeZ7ACtFp88-16" value="" style="ellipse;whiteSpace=wrap;html=1;aspect=fixed;" parent="1" vertex="1">
          <mxGeometry x="80" y="480" width="80" height="80" as="geometry" />
        </mxCell>
        <mxCell id="pceAAc0VWWeZ7ACtFp88-17" value="" style="ellipse;whiteSpace=wrap;html=1;aspect=fixed;" parent="1" vertex="1">
          <mxGeometry x="240" y="480" width="80" height="80" as="geometry" />
        </mxCell>
        <mxCell id="pceAAc0VWWeZ7ACtFp88-18" value="" style="ellipse;whiteSpace=wrap;html=1;aspect=fixed;" parent="1" vertex="1">
          <mxGeometry x="560" y="480" width="80" height="80" as="geometry" />
        </mxCell>
        <mxCell id="pceAAc0VWWeZ7ACtFp88-19" value="" style="ellipse;whiteSpace=wrap;html=1;aspect=fixed;" parent="1" vertex="1">
          <mxGeometry x="400" y="480" width="80" height="80" as="geometry" />
        </mxCell>
        <mxCell id="pceAAc0VWWeZ7ACtFp88-20" value="" style="endArrow=classic;html=1;rounded=0;exitX=0;exitY=0.5;exitDx=0;exitDy=0;" parent="1" source="pceAAc0VWWeZ7ACtFp88-11" target="pceAAc0VWWeZ7ACtFp88-14" edge="1">
          <mxGeometry width="50" height="50" relative="1" as="geometry">
            <mxPoint x="255" y="360" as="sourcePoint" />
            <mxPoint x="250" y="410" as="targetPoint" />
          </mxGeometry>
        </mxCell>
        <mxCell id="pceAAc0VWWeZ7ACtFp88-21" value="" style="endArrow=classic;html=1;rounded=0;exitX=1;exitY=0.5;exitDx=0;exitDy=0;" parent="1" source="pceAAc0VWWeZ7ACtFp88-11" target="pceAAc0VWWeZ7ACtFp88-15" edge="1">
          <mxGeometry width="50" height="50" relative="1" as="geometry">
            <mxPoint x="400.0041176470561" y="329.99999999999994" as="sourcePoint" />
            <mxPoint x="484.8700000000001" y="375.73647058823684" as="targetPoint" />
          </mxGeometry>
        </mxCell>
        <mxCell id="pceAAc0VWWeZ7ACtFp88-23" value="" style="endArrow=classic;html=1;rounded=0;exitX=0.159;exitY=0.907;exitDx=0;exitDy=0;exitPerimeter=0;" parent="1" source="pceAAc0VWWeZ7ACtFp88-14" edge="1">
          <mxGeometry width="50" height="50" relative="1" as="geometry">
            <mxPoint x="214.87000000000006" y="434.25999999999993" as="sourcePoint" />
            <mxPoint x="130" y="480" as="targetPoint" />
          </mxGeometry>
        </mxCell>
        <mxCell id="pceAAc0VWWeZ7ACtFp88-24" value="" style="endArrow=classic;html=1;rounded=0;exitX=0.195;exitY=0.893;exitDx=0;exitDy=0;exitPerimeter=0;" parent="1" source="pceAAc0VWWeZ7ACtFp88-15" edge="1">
          <mxGeometry width="50" height="50" relative="1" as="geometry">
            <mxPoint x="492.72" y="432.56000000000006" as="sourcePoint" />
            <mxPoint x="450.0041176470561" y="479.9964705882369" as="targetPoint" />
          </mxGeometry>
        </mxCell>
        <mxCell id="pceAAc0VWWeZ7ACtFp88-25" value="" style="endArrow=classic;html=1;rounded=0;exitX=0.159;exitY=0.907;exitDx=0;exitDy=0;exitPerimeter=0;" parent="1" edge="1">
          <mxGeometry width="50" height="50" relative="1" as="geometry">
            <mxPoint x="230" y="432.55999999999983" as="sourcePoint" />
            <mxPoint x="272.72" y="479.9999999999998" as="targetPoint" />
          </mxGeometry>
        </mxCell>
        <mxCell id="pceAAc0VWWeZ7ACtFp88-28" value="" style="endArrow=classic;html=1;rounded=0;exitX=0.159;exitY=0.907;exitDx=0;exitDy=0;exitPerimeter=0;" parent="1" edge="1">
          <mxGeometry width="50" height="50" relative="1" as="geometry">
            <mxPoint x="550" y="432.55999999999983" as="sourcePoint" />
            <mxPoint x="592.72" y="479.9999999999998" as="targetPoint" />
          </mxGeometry>
        </mxCell>
        <mxCell id="pceAAc0VWWeZ7ACtFp88-29" value="" style="ellipse;whiteSpace=wrap;html=1;aspect=fixed;" parent="1" vertex="1">
          <mxGeometry x="320" y="720" width="80" height="80" as="geometry" />
        </mxCell>
        <mxCell id="pceAAc0VWWeZ7ACtFp88-30" value="" style="ellipse;whiteSpace=wrap;html=1;aspect=fixed;" parent="1" vertex="1">
          <mxGeometry x="240" y="840" width="80" height="80" as="geometry" />
        </mxCell>
        <mxCell id="pceAAc0VWWeZ7ACtFp88-31" value="" style="ellipse;whiteSpace=wrap;html=1;aspect=fixed;" parent="1" vertex="1">
          <mxGeometry x="400" y="840" width="80" height="80" as="geometry" />
        </mxCell>
        <mxCell id="pceAAc0VWWeZ7ACtFp88-35" value="" style="endArrow=classic;startArrow=classic;html=1;rounded=0;entryX=0;entryY=1;entryDx=0;entryDy=0;" parent="1" target="pceAAc0VWWeZ7ACtFp88-29" edge="1">
          <mxGeometry width="50" height="50" relative="1" as="geometry">
            <mxPoint x="290" y="840" as="sourcePoint" />
            <mxPoint x="340" y="790" as="targetPoint" />
          </mxGeometry>
        </mxCell>
        <mxCell id="pceAAc0VWWeZ7ACtFp88-36" value="" style="endArrow=classic;startArrow=classic;html=1;rounded=0;entryX=0;entryY=1;entryDx=0;entryDy=0;" parent="1" edge="1">
          <mxGeometry width="50" height="50" relative="1" as="geometry">
            <mxPoint x="431.71572875253787" y="840" as="sourcePoint" />
            <mxPoint x="389.9999999999998" y="788.2842712474619" as="targetPoint" />
          </mxGeometry>
        </mxCell>
        <mxCell id="pceAAc0VWWeZ7ACtFp88-39" value="" style="endArrow=classic;startArrow=classic;html=1;rounded=0;entryX=1;entryY=0.5;entryDx=0;entryDy=0;exitX=0;exitY=0.5;exitDx=0;exitDy=0;" parent="1" source="pceAAc0VWWeZ7ACtFp88-31" target="pceAAc0VWWeZ7ACtFp88-30" edge="1">
          <mxGeometry width="50" height="50" relative="1" as="geometry">
            <mxPoint x="380.8557287525381" y="905.86" as="sourcePoint" />
            <mxPoint x="339.13999999999976" y="854.1442712474619" as="targetPoint" />
          </mxGeometry>
        </mxCell>
        <mxCell id="pceAAc0VWWeZ7ACtFp88-40" value="" style="ellipse;whiteSpace=wrap;html=1;aspect=fixed;" parent="1" vertex="1">
          <mxGeometry x="320" y="960" width="80" height="80" as="geometry" />
        </mxCell>
        <mxCell id="pceAAc0VWWeZ7ACtFp88-41" value="" style="endArrow=classic;startArrow=classic;html=1;rounded=0;entryX=0;entryY=1;entryDx=0;entryDy=0;exitX=0.073;exitY=0.207;exitDx=0;exitDy=0;exitPerimeter=0;" parent="1" source="pceAAc0VWWeZ7ACtFp88-40" edge="1">
          <mxGeometry width="50" height="50" relative="1" as="geometry">
            <mxPoint x="321.7157287525381" y="971.72" as="sourcePoint" />
            <mxPoint x="279.9999999999998" y="920.0042712474619" as="targetPoint" />
          </mxGeometry>
        </mxCell>
        <mxCell id="pceAAc0VWWeZ7ACtFp88-42" value="" style="endArrow=classic;startArrow=classic;html=1;rounded=0;entryX=0;entryY=1;entryDx=0;entryDy=0;exitX=0.973;exitY=0.236;exitDx=0;exitDy=0;exitPerimeter=0;" parent="1" source="pceAAc0VWWeZ7ACtFp88-40" edge="1">
          <mxGeometry width="50" height="50" relative="1" as="geometry">
            <mxPoint x="404" y="971.72" as="sourcePoint" />
            <mxPoint x="445.7157287525381" y="920.0042712474619" as="targetPoint" />
          </mxGeometry>
        </mxCell>
        <mxCell id="pceAAc0VWWeZ7ACtFp88-43" value="" style="endArrow=classic;startArrow=classic;html=1;rounded=0;entryX=0.459;entryY=1.007;entryDx=0;entryDy=0;entryPerimeter=0;exitX=0.5;exitY=0;exitDx=0;exitDy=0;" parent="1" source="pceAAc0VWWeZ7ACtFp88-40" target="pceAAc0VWWeZ7ACtFp88-29" edge="1">
          <mxGeometry width="50" height="50" relative="1" as="geometry">
            <mxPoint x="380.8557287525381" y="871.72" as="sourcePoint" />
            <mxPoint x="339.13999999999976" y="820.0042712474619" as="targetPoint" />
          </mxGeometry>
        </mxCell>
        <mxCell id="WboviOallaujsfzrFde7-3" value="head" style="rounded=0;whiteSpace=wrap;html=1;" vertex="1" parent="1">
          <mxGeometry x="140" y="40" width="80" height="40" as="geometry" />
        </mxCell>
        <mxCell id="WboviOallaujsfzrFde7-4" value="tail" style="rounded=0;whiteSpace=wrap;html=1;" vertex="1" parent="1">
          <mxGeometry x="620" y="40" width="80" height="40" as="geometry" />
        </mxCell>
        <mxCell id="WboviOallaujsfzrFde7-12" value="" style="endArrow=classic;html=1;rounded=0;" edge="1" parent="1">
          <mxGeometry width="50" height="50" relative="1" as="geometry">
            <mxPoint x="179.5" y="80" as="sourcePoint" />
            <mxPoint x="179.5" y="130" as="targetPoint" />
          </mxGeometry>
        </mxCell>
        <mxCell id="WboviOallaujsfzrFde7-13" value="" style="endArrow=classic;html=1;rounded=0;" edge="1" parent="1">
          <mxGeometry width="50" height="50" relative="1" as="geometry">
            <mxPoint x="659.5" y="80" as="sourcePoint" />
            <mxPoint x="659.5" y="130" as="targetPoint" />
          </mxGeometry>
        </mxCell>
        <mxCell id="WboviOallaujsfzrFde7-14" value="&lt;div&gt;element&lt;/div&gt;" style="rounded=0;whiteSpace=wrap;html=1;" vertex="1" parent="1">
          <mxGeometry x="620" y="280" width="80" height="40" as="geometry" />
        </mxCell>
        <mxCell id="WboviOallaujsfzrFde7-15" value="node" style="rounded=0;whiteSpace=wrap;html=1;fontStyle=1" vertex="1" parent="1">
          <mxGeometry x="620" y="320" width="80" height="40" as="geometry" />
        </mxCell>
      </root>
    </mxGraphModel>
  </diagram>
</mxfile>
